<?xml version="1.0" encoding="UTF-8" standalone="no"?>
<!-- Created with Inkscape (http://www.inkscape.org/) -->

<svg
   width="30.000107mm"
   height="19.163746mm"
   viewBox="0 0 30.000107 19.163746"
   version="1.1"
   id="svg1"
   xml:space="preserve"
   xmlns="http://www.w3.org/2000/svg"
   xmlns:svg="http://www.w3.org/2000/svg"><defs
     id="defs1" /><g
     id="layer1"
     transform="translate(-90.151351,-103.08697)"><g
       id="g2"><text
         xml:space="preserve"
         style="font-size:2.88992px;font-family:'Franklin Gothic Demi Cond';-inkscape-font-specification:'Franklin Gothic Demi Cond';text-align:start;writing-mode:lr-tb;direction:ltr;text-anchor:start;opacity:1;fill:#666666;fill-opacity:1;stroke:none;stroke-width:0.00151402;stroke-linejoin:bevel"
         x="101.60522"
         y="117.48741"
         id="text89"
         transform="scale(0.9612791,1.0402806)"><tspan
           id="tspan89"
           style="font-style:normal;font-variant:normal;font-weight:normal;font-stretch:normal;font-family:'Franklin Gothic Heavy';-inkscape-font-specification:'Franklin Gothic Heavy, ';fill:#666666;fill-opacity:1;stroke-width:0.00151402"
           x="101.60522"
           
           y="117.48741">ORBITALS</tspan></text><g
         id="g1"><g
           id="g50"
           transform="translate(11.118422,-1.8102045)"><path
             d="M 100.59359,108.2001 H 85.589294 v 7.23732 c 0,0.74264 0.554521,1.34049 1.243328,1.34049 h 12.51763 c 0.688818,0 1.243338,-0.59785 1.243338,-1.34049 z"
             style="opacity:1;fill:#cccccc;stroke:none;stroke-width:0.00160197;stroke-linejoin:bevel"
             id="path4" /><g
             id="g44"
             transform="translate(-0.55137577,0.01126862)"><rect
               style="opacity:0.5;fill:#000000;stroke:#000000;stroke-width:0.00240498;stroke-linejoin:bevel"
               id="rect34"
               width="1.8089253"
               height="1.8089253"
               x="87.263611"
               y="111.39552"
               ry="0.35746506" /><rect
               style="opacity:0.5;fill:#000000;stroke:#000000;stroke-width:0.00240498;stroke-linejoin:bevel"
               id="rect35"
               width="1.8089253"
               height="1.8089253"
               x="90.000984"
               y="111.39552"
               ry="0.35746506" /><rect
               style="opacity:0.5;fill:#000000;stroke:#000000;stroke-width:0.00240498;stroke-linejoin:bevel"
               id="rect36"
               width="1.8089253"
               height="1.8089253"
               x="92.738358"
               y="111.39552"
               ry="0.35746506" /><rect
               style="opacity:0.5;fill:#000000;stroke:#000000;stroke-width:0.00240498;stroke-linejoin:bevel"
               id="rect37"
               width="1.8089253"
               height="1.8089253"
               x="95.475723"
               y="111.39552"
               ry="0.35746506" /><rect
               style="opacity:0.5;fill:#000000;stroke:#000000;stroke-width:0.00240498;stroke-linejoin:bevel"
               id="rect38"
               width="1.8089253"
               height="1.8089253"
               x="98.213097"
               y="111.39552"
               ry="0.35746506" /></g><g
             id="g43"
             transform="translate(-0.55137577)"><rect
               style="opacity:0.5;fill:#000000;stroke:#000000;stroke-width:0.00240498;stroke-linejoin:bevel"
               id="rect39"
               width="1.8089253"
               height="1.8089253"
               x="87.263611"
               y="114.12399"
               ry="0.35746506" /><rect
               style="opacity:0.5;fill:#000000;stroke:#000000;stroke-width:0.00240498;stroke-linejoin:bevel"
               id="rect40"
               width="1.8089253"
               height="1.8089253"
               x="90.000984"
               y="114.12399"
               ry="0.35746506" /><rect
               style="opacity:0.5;fill:#000000;stroke:#000000;stroke-width:0.00240498;stroke-linejoin:bevel"
               id="rect41"
               width="1.8089253"
               height="1.8089253"
               x="92.738358"
               y="114.12399"
               ry="0.35746506" /><rect
               style="opacity:0.5;fill:#000000;stroke:#000000;stroke-width:0.00240498;stroke-linejoin:bevel"
               id="rect42"
               width="1.8089253"
               height="1.8089253"
               x="95.475723"
               y="114.12399"
               ry="0.35746506" /><rect
               style="opacity:0.5;fill:#000000;stroke:#000000;stroke-width:0.00240498;stroke-linejoin:bevel"
               id="rect43"
               width="1.8089253"
               height="1.8089253"
               x="98.213097"
               y="114.12399"
               ry="0.35746506" /></g></g><g
           id="g11"
           transform="matrix(2.6030611,0.7067678,-0.78360243,1.8516741,-18.096929,-78.907343)"><path
             id="path7"
             style="fill:#cadce8;fill-opacity:1;stroke-width:0.00137256;stroke-linejoin:bevel"
             d="m 70.494025,72.438531 c -1.253107,0.704748 -2.642867,2.088323 -3.389787,3.363969 -0.883965,1.509727 -0.823586,2.787455 0.577921,2.530716 1.859795,-0.340739 4.498158,-2.88768 5.082021,-4.94976 0.451217,-1.593727 -0.748216,-1.800846 -2.270155,-0.944925 z M 70.29397,72.85792 c 1.216122,-0.657243 2.075864,-0.400635 1.650453,0.875898 -0.51717,1.551908 -2.453827,3.431421 -3.872,3.781264 -1.142753,0.281911 -1.275919,-0.657778 -0.583682,-1.876918 0.602122,-1.060441 1.769222,-2.220347 2.805229,-2.780244 z" /><path
             id="circle8"
             style="fill:#a6d1be;fill-opacity:1;stroke-width:0.00164707;stroke-linejoin:bevel"
             d="m 70.68195,72.044383 c -1.456628,0.848461 -3.048899,2.436132 -3.936658,3.911435 -1.079711,1.794215 -1.133535,3.451235 0.509515,3.272981 2.347963,-0.254549 5.827257,-3.592055 6.420141,-6.234758 0.42744,-1.904702 -1.165984,-2.013914 -2.992998,-0.949658 z m -0.188003,0.394116 c 1.52207,-0.856098 2.72172,-0.649109 2.270503,0.944694 -0.583649,2.062305 -3.222588,4.609795 -5.082546,4.950272 -1.401357,0.256492 -1.461552,-1.021388 -0.577495,-2.531135 0.746857,-1.275548 2.136479,-2.659027 3.389538,-3.363831 z" /><path
             id="circle10"
             style="fill:#dc7869;fill-opacity:1;stroke-width:0.00192158;stroke-linejoin:bevel"
             d="m 70.858958,71.673315 c -1.647871,0.99022 -3.425158,2.764918 -4.449488,4.426035 -1.277895,2.072273 -1.486759,4.149569 0.37595,4.11344 2.890757,-0.05594 7.39451,-4.343084 7.906695,-7.653494 0.341229,-2.204932 -1.70263,-2.166262 -3.833157,-0.885981 z m -0.177008,0.371068 c 1.827014,-1.064257 3.420438,-0.955045 2.992999,0.949657 -0.593156,2.6426 -4.07214,5.979647 -6.41991,6.234274 -1.642754,0.178075 -1.589035,-1.478602 -0.509567,-3.272573 0.887708,-1.475237 2.479872,-3.06284 3.936478,-3.911358 z" /></g><g
           id="g16"
           transform="translate(10.534011,0.45632531)"><rect
             style="fill:#cccccc;fill-opacity:1;stroke:none;stroke-width:0.00111069;stroke-linejoin:bevel"
             id="rect1"
             width="1.113207"
             height="5.7475634"
             x="86.17292"
             y="104.89577"
             ry="0" /><rect
             style="fill:#cccccc;fill-opacity:1;stroke:none;stroke-width:0.00176919;stroke-linejoin:bevel"
             id="rect88"
             width="3.8413882"
             height="4.2260776"
             x="86.17292"
             y="104.89577"
             ry="0" /><rect
             style="fill:#cccccc;fill-opacity:1;stroke:none;stroke-width:0.0018957;stroke-linejoin:bevel"
             id="rect17"
             width="6.5124712"
             height="2.8619869"
             x="88.621284"
             y="105.57781"
             ry="0" /><g
             id="g15"><path
               d="m 87.417035,102.63143 c -0.688807,0 -1.243328,0.59785 -1.243328,1.3405 v 1.96164 H 101.178 v -1.96164 c 0,-0.74265 -0.55452,-1.3405 -1.243335,-1.3405 z"
               style="fill:#f50000;fill-opacity:1;stroke:#000000;stroke-width:0.00160197;stroke-linejoin:bevel"
               id="path3" /><rect
               style="fill:#e6e6e6;fill-opacity:1;stroke:#000000;stroke-width:0.00203685;stroke-linejoin:bevel"
               id="rect49"
               width="5.6820598"
               height="1.2623894"
               x="87.038765"
               y="104.03123"
               ry="0.35735935" /><path
               d="m 87.417035,102.63143 c -0.688807,0 -1.243328,0.59785 -1.243328,1.3405 v 1.96164 H 101.178 v -1.96164 c 0,-0.74265 -0.55452,-1.3405 -1.243335,-1.3405 z"
               style="opacity:0.431402;fill:#9d9d9d;fill-opacity:1;stroke:#000000;stroke-width:0.00160197;stroke-linejoin:bevel"
               id="path45" /></g><g
             id="g45"
             transform="translate(0.03303706,-2.2665298)"><rect
               style="opacity:0.5;fill:#000000;stroke:#000000;stroke-width:0.00240498;stroke-linejoin:bevel"
               id="rect11"
               width="1.8089253"
               height="1.8089253"
               x="87.263611"
               y="108.68959"
               ry="0.35746506" /><rect
               style="opacity:0.5;fill:#000000;stroke:#000000;stroke-width:0.00240498;stroke-linejoin:bevel"
               id="rect21"
               width="1.8089253"
               height="1.8089253"
               x="90.000984"
               y="108.68959"
               ry="0.35746506" /><rect
               style="opacity:0.5;fill:#000000;stroke:#000000;stroke-width:0.00240498;stroke-linejoin:bevel"
               id="rect22"
               width="1.8089253"
               height="1.8089253"
               x="92.738358"
               y="108.68959"
               ry="0.35746506" /><rect
               style="opacity:0.5;fill:#000000;stroke:#000000;stroke-width:0.00240498;stroke-linejoin:bevel"
               id="rect23"
               width="1.8089253"
               height="1.8089253"
               x="95.475723"
               y="108.68959"
               ry="0.35746506" /><rect
               style="opacity:0.5;fill:#000000;stroke:#000000;stroke-width:0.00240498;stroke-linejoin:bevel"
               id="rect24"
               width="1.8089253"
               height="1.8089253"
               x="98.213097"
               y="108.68959"
               ry="0.35746506" /></g></g></g></g></g></svg>
